<svg xmlns="http://www.w3.org/2000/svg" width="512" height="512" viewBox="0 0 512 512" role="img" aria-label="justthefile">
  <title>justthefile</title>

  <!-- Same mark as logo.svg with no plate behind it, for placing on a surface
       that already has its own background. The page is drawn in currentColor
       so it inverts with the host page's theme; only the folded corner is
       pinned to the brand colour. -->
  <g fill="currentColor">
    <path fill-rule="evenodd" d="
      M148 96 h132 l84 84 v236 a28 28 0 0 1 -28 28 h-188 a28 28 0 0 1 -28 -28 v-292 a28 28 0 0 1 28 -28 z
      M232 196 h48 a12 12 0 0 1 12 12 v76 h34 a10 10 0 0 1 7.6 16.5 l-58 66 a10 10 0 0 1 -15.2 0 l-58 -66 a10 10 0 0 1 7.6 -16.5 h34 v-76 a12 12 0 0 1 12 -12 z"/>
  </g>
  <path fill="#6366f1" d="M280 96 l84 84 h-60 a24 24 0 0 1 -24 -24 z"/>
</svg>
